<svg width="122" height="44" viewBox="0 0 122 44" fill="none" xmlns="http://www.w3.org/2000/svg">
<rect width="122" height="44" rx="4" fill="white"/>
<path d="M60.7961 16.791C61.8455 17.7793 62.3703 19.1105 62.3732 20.7846C62.379 21.2693 62.3355 21.7541 62.2441 22.2301C62.1586 22.6758 62.0485 23.1171 61.9137 23.5497H51.6306C51.6118 23.7176 51.6045 23.8869 51.606 24.0576C51.5625 24.8245 51.8422 25.574 52.38 26.1238C52.9337 26.6375 53.6701 26.9081 54.4253 26.8719C55.0689 26.8878 55.7053 26.7258 56.2619 26.4045C56.7707 26.1007 57.2012 25.6811 57.5201 25.1819H61.3556C60.7221 26.5463 59.7132 27.7039 58.4478 28.5185C57.1258 29.391 55.5719 29.8468 53.9876 29.8237C52.1945 29.8237 50.7536 29.3144 49.6679 28.2957C48.5822 27.2771 48.0401 25.8996 48.043 24.1618C48.0444 23.625 48.0966 23.091 48.1966 22.5643C48.4199 21.1869 48.9533 19.8774 49.7578 18.7357C50.513 17.6621 51.5219 16.7925 52.6931 16.1992C53.8817 15.6002 55.1965 15.2949 56.5286 15.3065C58.3246 15.3065 59.7466 15.8013 60.7961 16.791ZM58.7623 20.8092C58.8 20.0886 58.5101 19.3898 57.9723 18.9079C57.3954 18.4319 56.662 18.1873 55.9154 18.2235C55.037 18.2163 54.1832 18.5172 53.5034 19.0729C52.7714 19.669 52.2452 20.4807 52.0031 21.3923H58.7102C58.7392 21.1999 58.7566 21.0045 58.7623 20.8092Z" fill="#150844"/>
<path d="M67.3253 26.6693H73.5757L73.0582 29.5849H62.752L63.2607 26.7185L70.8578 18.4506H64.7349L65.2437 15.535H75.4587L74.9774 18.4014L67.3253 26.6693Z" fill="#150844"/>
<path d="M88.7477 16.791C89.7971 17.7793 90.3204 19.1105 90.3204 20.7846C90.3248 21.2693 90.2828 21.7526 90.1943 22.2301C90.09 22.738 89.9798 23.1778 89.8638 23.5497H79.5721C79.5518 23.7176 79.5445 23.8869 79.5474 24.0576C79.5039 24.8245 79.7837 25.574 80.3215 26.1238C80.8738 26.6375 81.6116 26.9081 82.3668 26.8719C83.0104 26.8878 83.6453 26.7258 84.2034 26.4045C84.7121 26.1007 85.1427 25.6811 85.4616 25.1819H89.2971C88.6622 26.5449 87.6547 27.7025 86.3893 28.5185C85.0687 29.3867 83.5163 29.8381 81.9348 29.8135C80.1374 29.8135 78.6965 29.3042 77.6152 28.2856C76.5338 27.2669 75.9917 25.8894 75.9902 24.1516C75.9931 23.6163 76.0424 23.0809 76.1395 22.5542C76.3642 21.1767 76.8991 19.8672 77.7036 18.7256C78.4588 17.652 79.4677 16.7823 80.6389 16.1891C81.8275 15.5915 83.1437 15.2862 84.4744 15.2992C86.2748 15.3036 87.6982 15.8013 88.7477 16.791ZM86.7125 20.8092C86.7517 20.0901 86.4632 19.3912 85.9254 18.9079C85.3485 18.4319 84.615 18.1888 83.8685 18.2235C82.9886 18.2163 82.1334 18.5172 81.4536 19.0729C80.723 19.6705 80.1983 20.4807 79.9533 21.3923H86.6632C86.6908 21.1999 86.7067 21.0045 86.7125 20.8092Z" fill="#150844"/>
<path d="M104.423 16.791C105.472 17.7793 105.997 19.1105 106 20.7846C106.006 21.2693 105.962 21.7541 105.871 22.2301C105.786 22.6758 105.675 23.1171 105.541 23.5497H95.2488C95.23 23.7176 95.2227 23.8869 95.2242 24.0576C95.1807 24.8245 95.4604 25.574 95.9982 26.1238C96.5519 26.6375 97.2898 26.9081 98.0464 26.8719C98.69 26.8878 99.3264 26.7258 99.883 26.4045C100.392 26.1007 100.822 25.6811 101.141 25.1819H104.98C104.343 26.5449 103.334 27.7024 102.069 28.5185C100.747 29.391 99.193 29.8468 97.6087 29.8237C95.8156 29.8237 94.3747 29.3143 93.289 28.2957C92.2033 27.277 91.6612 25.8996 91.6641 24.1618C91.667 23.625 91.7192 23.091 91.8177 22.5643C92.041 21.1869 92.5744 19.8774 93.3789 18.7357C94.1355 17.6635 95.143 16.7925 96.3142 16.1992C97.5028 15.6016 98.819 15.2963 100.15 15.3094C101.95 15.3079 103.375 15.8013 104.423 16.791ZM102.391 20.8092C102.428 20.0901 102.14 19.3912 101.604 18.9079C101.025 18.4319 100.292 18.1888 99.5438 18.2235C98.6654 18.2163 97.8116 18.5172 97.1318 19.0729C96.3997 19.669 95.8735 20.4807 95.6315 21.3923H102.339C102.366 21.1999 102.383 21.0045 102.391 20.8092Z" fill="#150844"/>
<path d="M17.9062 19.004C17.9394 18.9879 17.9725 18.9732 18.0071 18.957C17.9739 18.9732 17.9394 18.9879 17.9062 19.004Z" fill="#00E4D0"/>
<path d="M30.7377 15.5582C32.2641 12.5124 35.3298 10.6212 38.7406 10.6212H43.0037C44.8345 10.6212 46.3203 9.13955 46.3203 7.31061C46.3203 5.48312 44.8359 4 43.0037 4H38.7406C32.8018 4 27.4617 7.2947 24.8062 12.5963L24.006 14.1952C22.8609 16.4828 20.8446 18.1193 18.4659 18.7921C18.3238 18.8326 18.1861 18.8833 18.0527 18.9397C18.0687 18.9325 18.0861 18.9267 18.102 18.9209C18.1049 18.9195 18.1078 18.918 18.1122 18.9166C18.1615 18.8978 18.2107 18.8789 18.26 18.863C18.2716 18.8587 18.2847 18.8543 18.2963 18.8515C18.3354 18.8384 18.376 18.8269 18.4166 18.8153C18.4369 18.8095 18.4572 18.8037 18.4775 18.7979C18.505 18.7907 18.534 18.7849 18.563 18.7777C18.6934 18.7473 18.8268 18.7241 18.9616 18.7097C18.9688 18.7082 18.9775 18.7082 18.9848 18.7068C19.0254 18.7024 19.066 18.6995 19.1066 18.6981C19.1283 18.6966 19.1486 18.6952 19.1703 18.6937C19.2008 18.6923 19.2327 18.6923 19.2631 18.6908C19.2819 18.6908 19.3008 18.6894 19.3211 18.6894H29.0606C29.3795 18.1989 29.6737 17.6867 29.9404 17.1542L30.7377 15.5582Z" fill="#00E4D0"/>
<path d="M18.0056 25.0421C17.9725 25.0274 17.9394 25.0127 17.9062 24.9966C17.9394 25.0127 17.9725 25.0274 18.0056 25.0421Z" fill="#9C6CFE"/>
<path d="M19.2602 25.3077C19.2298 25.3077 19.1979 25.3063 19.1674 25.3048C19.1457 25.3034 19.1254 25.3019 19.1037 25.3005C19.0631 25.2976 19.0225 25.2947 18.9833 25.2918C18.9746 25.2904 18.9674 25.2904 18.9587 25.2889C18.8239 25.2745 18.692 25.2513 18.563 25.2209C18.534 25.2137 18.505 25.2079 18.476 25.2007C18.4557 25.1949 18.4354 25.1891 18.4151 25.1833C18.3745 25.1717 18.3339 25.1601 18.2948 25.1471C18.2832 25.1428 18.2702 25.1384 18.2586 25.1355C18.2078 25.1182 18.1586 25.1008 18.1093 25.082C18.1064 25.0806 18.1035 25.0791 18.1006 25.0791C18.0846 25.0733 18.0687 25.0661 18.0527 25.0603C18.1861 25.1167 18.3223 25.1674 18.4644 25.2079C20.8431 25.8807 22.858 27.5172 24.0046 29.8063L24.8047 31.4037C27.4603 36.7068 32.8004 40 38.7392 40H43.0023C44.8331 40 46.3188 38.5183 46.3188 36.6894C46.3188 34.8619 44.8345 33.3788 43.0023 33.3788H38.7392C35.3284 33.3788 32.2612 31.4862 30.7362 28.4418L29.9361 26.8444C29.6694 26.3119 29.3751 25.7997 29.0562 25.3092H19.3182C19.2979 25.3092 19.279 25.3092 19.2602 25.3077Z" fill="#9C6CFE"/>
<path d="M18.2578 18.8629C18.2693 18.8586 18.2823 18.8543 18.2938 18.8514C18.2823 18.8543 18.2693 18.8586 18.2578 18.8629Z" fill="#9C6CFE"/>
<path d="M18.5605 18.7786C18.691 18.7478 18.8229 18.7243 18.9592 18.7096C18.8244 18.7243 18.691 18.7478 18.5605 18.7786Z" fill="#9C6CFE"/>
<path d="M18.0996 18.9206C18.1024 18.9193 18.1052 18.9179 18.1093 18.9165C18.1065 18.9179 18.1024 18.9193 18.0996 18.9206Z" fill="#9C6CFE"/>
<path d="M18.4141 18.8151C18.4342 18.8094 18.4544 18.8037 18.4746 18.798C18.4544 18.8037 18.4342 18.8094 18.4141 18.8151Z" fill="#9C6CFE"/>
<path d="M19.1 25.3018C19.0597 25.2989 19.0194 25.2961 18.9805 25.2932C19.0194 25.2975 19.0597 25.2989 19.1 25.3018Z" fill="#9C6CFE"/>
<path d="M18.2938 25.1484C18.2823 25.1441 18.2693 25.1398 18.2578 25.137C18.2693 25.1398 18.2823 25.1441 18.2938 25.1484Z" fill="#9C6CFE"/>
<path d="M19.2582 25.3077C19.2279 25.3077 19.1963 25.3062 19.166 25.3048C19.1963 25.3077 19.2265 25.3077 19.2582 25.3077Z" fill="#9C6CFE"/>
<path d="M18.4746 25.2018C18.4544 25.1961 18.4342 25.1904 18.4141 25.1847C18.4342 25.1904 18.4544 25.1961 18.4746 25.2018Z" fill="#9C6CFE"/>
<path d="M18.9582 25.2915C18.8234 25.2768 18.6915 25.2533 18.5625 25.2224C18.693 25.2533 18.8249 25.2768 18.9582 25.2915Z" fill="#9C6CFE"/>
<path d="M18.1098 25.0818C18.107 25.0805 18.1043 25.0791 18.1016 25.0791C18.1029 25.0805 18.107 25.0805 18.1098 25.0818Z" fill="#9C6CFE"/>
<path d="M18.9785 18.7067C19.0188 18.7024 19.0592 18.6995 19.0995 18.6981C19.0592 18.6995 19.0188 18.7024 18.9785 18.7067Z" fill="#9C6CFE"/>
<path d="M19.166 18.6937C19.1963 18.6922 19.2279 18.6922 19.2582 18.6908C19.2279 18.6922 19.1963 18.6922 19.166 18.6937Z" fill="#9C6CFE"/>
<path d="M16.3761 20.4721C16.392 20.4417 16.408 20.4113 16.4254 20.3824C16.4515 20.3361 16.479 20.2912 16.5066 20.2463C16.5196 20.2261 16.5312 20.2058 16.5442 20.187C16.5848 20.1248 16.6298 20.064 16.6747 20.0047C16.6892 19.9859 16.7037 19.9685 16.7182 19.9497C16.7573 19.9005 16.7965 19.8528 16.8385 19.8065C16.8501 19.7935 16.8617 19.779 16.8733 19.766C16.9269 19.7081 16.982 19.6517 17.04 19.5967C17.0501 19.5865 17.0617 19.5779 17.0719 19.5677C17.1212 19.5214 17.1733 19.478 17.2255 19.4346C17.24 19.423 17.2545 19.41 17.2705 19.3984C17.3313 19.3507 17.3937 19.3044 17.4589 19.2595C17.4749 19.248 17.4922 19.2378 17.5096 19.2277C17.556 19.1973 17.6024 19.1684 17.6502 19.1409C17.6821 19.1221 17.7155 19.1033 17.7488 19.0844C17.7735 19.0714 17.7981 19.0584 17.8227 19.0468C17.8517 19.0324 17.8793 19.0164 17.9083 19.0034C17.1936 19.3391 16.6196 19.9208 16.2949 20.6399C16.3022 20.624 16.3109 20.6081 16.3181 20.5922C16.3355 20.5516 16.3558 20.5126 16.3761 20.4721Z" fill="#1894E1"/>
<path d="M26.168 21.9999C27.2696 22.9491 28.2423 24.0589 29.054 25.3091H35.4219C37.2526 25.3091 38.7384 23.8274 38.7384 21.9985C38.7384 20.171 37.2541 18.6879 35.4219 18.6879H29.0555C28.2437 19.9395 27.2696 21.0507 26.168 21.9999Z" fill="#1894E1"/>
<path d="M18.0525 25.0601C18.0381 25.0544 18.0222 25.0486 18.0078 25.0415C18.0237 25.0472 18.0381 25.0529 18.0525 25.0601Z" fill="#1894E1"/>
<path d="M17.7483 24.9141C17.715 24.8968 17.6831 24.878 17.6512 24.8591C17.6019 24.8302 17.5541 24.8013 17.5077 24.7694C17.4917 24.7593 17.4758 24.7492 17.4599 24.739C17.3946 24.6956 17.3323 24.6479 17.27 24.6001C17.2555 24.5886 17.241 24.577 17.2265 24.5654C17.1728 24.522 17.1221 24.4772 17.0714 24.4309C17.0612 24.4222 17.0511 24.412 17.0409 24.4034C16.983 24.3484 16.9279 24.2919 16.8728 24.2341C16.8612 24.221 16.8496 24.208 16.838 24.195C16.796 24.1487 16.7554 24.0995 16.7162 24.0503C16.7017 24.0329 16.6872 24.0156 16.6742 23.9968C16.6293 23.9374 16.5843 23.8767 16.5437 23.813C16.5307 23.7942 16.5191 23.7739 16.5075 23.7551C16.4785 23.7103 16.451 23.664 16.4249 23.6177C16.4075 23.5887 16.3915 23.5583 16.3756 23.528C16.3553 23.4874 16.335 23.4469 16.3162 23.4064C16.3089 23.3905 16.3002 23.376 16.293 23.3601C16.6177 24.0792 17.1931 24.6624 17.9078 24.9981C17.8788 24.985 17.8527 24.9691 17.8237 24.9546C17.799 24.9402 17.7744 24.9272 17.7483 24.9141Z" fill="#1894E1"/>
<path d="M18.0098 18.9583C18.0242 18.9526 18.0371 18.9469 18.0515 18.9412C18.0371 18.9454 18.0242 18.9512 18.0098 18.9583Z" fill="#1894E1"/>
<path d="M18.1094 18.9174C18.1583 18.8983 18.2073 18.8807 18.2563 18.863C18.2073 18.8807 18.1583 18.8983 18.1094 18.9174Z" fill="#1894E1"/>
<path d="M19.1035 18.698C19.1251 18.6966 19.1453 18.6952 19.1669 18.6937C19.1453 18.6952 19.1251 18.6966 19.1035 18.698Z" fill="#1894E1"/>
<path d="M18.293 18.852C18.3319 18.8388 18.3722 18.8271 18.4125 18.8153C18.3722 18.8271 18.3319 18.8388 18.293 18.852Z" fill="#1894E1"/>
<path d="M18.4727 18.7977C18.5 18.7906 18.5288 18.7849 18.5576 18.7777C18.5288 18.7834 18.5 18.7906 18.4727 18.7977Z" fill="#1894E1"/>
<path d="M18.957 18.7096C18.964 18.7082 18.9724 18.7082 18.9794 18.7068C18.9724 18.7068 18.964 18.7082 18.957 18.7096Z" fill="#1894E1"/>
<path d="M18.0988 18.9209C18.0829 18.9267 18.0657 18.9339 18.0498 18.9397C18.0354 18.9455 18.0225 18.9513 18.0081 18.9571C17.9749 18.9715 17.9404 18.9875 17.9072 19.0034C17.8784 19.0178 17.8511 19.0323 17.8223 19.0468C17.913 19.0005 18.0052 18.9585 18.0988 18.9209Z" fill="#1894E1"/>
<path d="M19.2578 18.6908C19.5608 18.6864 19.8695 18.7241 20.1797 18.8094C22.399 19.42 24.4385 20.511 26.1663 21.9999C27.268 21.0507 28.2406 19.9395 29.0538 18.6893H19.3158C19.2955 18.6893 19.2767 18.6908 19.2578 18.6908Z" fill="#0084B8"/>
<path d="M26.1663 22C24.4385 23.4889 22.3975 24.5799 20.1797 25.1905C19.8695 25.2759 19.5593 25.3135 19.2578 25.3092C19.2767 25.3092 19.2955 25.3106 19.3158 25.3106H29.0538C28.2421 24.059 27.268 22.9492 26.1663 22Z" fill="#0F3FE0"/>
<path d="M17.8242 24.9532C17.8516 24.9677 17.8789 24.9822 17.9078 24.9967C17.9409 25.0126 17.9726 25.027 18.0071 25.0415C18.0215 25.0473 18.0374 25.0545 18.0518 25.0603C18.0676 25.0676 18.0835 25.0733 18.0993 25.0791C18.0042 25.0415 17.9135 24.9996 17.8242 24.9532Z" fill="#1894E1"/>
<path d="M19.1669 25.3063C19.1453 25.3049 19.1251 25.3034 19.1035 25.302C19.1237 25.3034 19.1453 25.3049 19.1669 25.3063Z" fill="#1894E1"/>
<path d="M18.9789 25.2931C18.9705 25.2917 18.9635 25.2917 18.9551 25.2903C18.9635 25.2903 18.9719 25.2917 18.9789 25.2931Z" fill="#1894E1"/>
<path d="M18.2558 25.1378C18.2068 25.1202 18.1564 25.1026 18.1074 25.0835C18.1564 25.1011 18.2068 25.1202 18.2558 25.1378Z" fill="#1894E1"/>
<path d="M18.5571 25.2221C18.5283 25.215 18.4995 25.2093 18.4707 25.2021C18.4995 25.2093 18.5283 25.215 18.5571 25.2221Z" fill="#1894E1"/>
<path d="M18.4125 25.1853C18.3722 25.1735 18.3319 25.1618 18.293 25.1486C18.3319 25.1618 18.3722 25.1735 18.4125 25.1853Z" fill="#1894E1"/>
<path d="M17.7481 19.0859C17.7148 19.1032 17.6829 19.1221 17.6496 19.1423C17.6017 19.1698 17.5539 19.2002 17.509 19.2291C17.493 19.2407 17.4756 19.2508 17.4582 19.261C17.393 19.3044 17.3307 19.3507 17.2698 19.3999C17.2553 19.4114 17.2394 19.4245 17.2249 19.436C17.1727 19.4795 17.1205 19.5229 17.0712 19.5692C17.0611 19.5793 17.0495 19.588 17.0393 19.5981C16.9813 19.6531 16.9263 19.7095 16.8726 19.7674C16.861 19.7804 16.8494 19.7949 16.8378 19.8079C16.7958 19.8542 16.7567 19.902 16.7175 19.9512C16.703 19.9685 16.6885 19.9873 16.674 20.0061C16.6291 20.0655 16.5856 20.1262 16.5436 20.1885C16.5305 20.2073 16.5189 20.229 16.5059 20.2478C16.4783 20.2926 16.4508 20.3375 16.4247 20.3838C16.4073 20.4142 16.3914 20.4431 16.3754 20.4735C16.3551 20.5126 16.3348 20.5531 16.316 20.5936C16.2914 20.6457 16.2682 20.6992 16.245 20.7542C16.229 20.7918 16.2145 20.8295 16.2 20.8685C16.1855 20.909 16.171 20.951 16.158 20.993C16.1479 21.0233 16.1392 21.0537 16.1305 21.0841C16.1174 21.1275 16.1058 21.1709 16.0942 21.2143C16.0928 21.2172 16.0928 21.2201 16.0928 21.223C16.0884 21.2433 16.0841 21.2621 16.0797 21.2824C16.071 21.32 16.0623 21.3561 16.0565 21.3952C16.0551 21.4053 16.0522 21.4155 16.0507 21.427C16.0449 21.4632 16.0391 21.4994 16.0348 21.537C16.029 21.5732 16.0246 21.6108 16.0203 21.647C16.0159 21.686 16.013 21.7251 16.0101 21.7656C16.0058 21.8278 16.0029 21.8915 16.0014 21.9537C16.0014 21.9697 16 21.9856 16 22C16 22.016 16.0014 22.0319 16.0014 22.0463C16.0029 22.11 16.0058 22.1722 16.0101 22.2359C16.013 22.275 16.0159 22.314 16.0203 22.3531C16.0246 22.3907 16.029 22.4269 16.0348 22.4645C16.0406 22.5007 16.0449 22.5369 16.0507 22.573C16.0522 22.5832 16.0551 22.5933 16.0565 22.6049C16.0638 22.6425 16.0725 22.6787 16.0797 22.7163C16.0841 22.7365 16.0884 22.7568 16.0928 22.777C16.0928 22.7799 16.0942 22.7828 16.0942 22.7857C16.1044 22.8291 16.1174 22.8725 16.1305 22.916C16.1392 22.9463 16.1479 22.9767 16.158 23.0071C16.171 23.0491 16.1855 23.091 16.2 23.1315C16.2145 23.1706 16.2305 23.2097 16.2464 23.2488C16.2682 23.3023 16.2914 23.3544 16.316 23.4065C16.3348 23.447 16.3551 23.4875 16.3754 23.528C16.3914 23.5584 16.4073 23.5873 16.4247 23.6177C16.4508 23.664 16.4783 23.7103 16.5073 23.7552C16.5189 23.774 16.5305 23.7943 16.5436 23.8131C16.5856 23.8753 16.6291 23.9361 16.674 23.9968C16.6871 24.0142 16.7016 24.033 16.7161 24.0504C16.7552 24.0996 16.7958 24.1473 16.8378 24.1951C16.8494 24.2081 16.861 24.2211 16.8726 24.2341C16.9263 24.292 16.9828 24.3499 17.0408 24.4034C17.0509 24.4135 17.0611 24.4222 17.0712 24.4309C17.1219 24.4772 17.1727 24.5221 17.2263 24.5655C17.2408 24.577 17.2553 24.5886 17.2698 24.6002C17.3307 24.6479 17.3945 24.6957 17.4597 24.7391C17.4756 24.7492 17.4916 24.7594 17.5075 24.7695C17.5539 24.7999 17.6032 24.8303 17.651 24.8592C17.6829 24.878 17.7148 24.8968 17.7481 24.9142C17.7728 24.9272 17.7989 24.9402 17.825 24.9533C17.9148 24.9996 18.0062 25.0415 18.1004 25.0791C18.1033 25.0806 18.1062 25.082 18.1091 25.082C18.1584 25.1008 18.2077 25.1197 18.2584 25.1356C18.27 25.1399 18.2816 25.1443 18.2946 25.1471C18.3338 25.1602 18.3744 25.1717 18.4149 25.1833C18.4352 25.1891 18.4555 25.1949 18.4758 25.2007C18.5048 25.2079 18.5338 25.2152 18.5628 25.2209C18.6918 25.2513 18.8237 25.2745 18.9585 25.2889C18.9672 25.2904 18.9745 25.2904 18.9832 25.2918C19.0237 25.2962 19.0643 25.2991 19.1035 25.3005C19.1252 25.302 19.1455 25.3034 19.1673 25.3049C19.1977 25.3063 19.2296 25.3063 19.26 25.3078C19.563 25.3121 19.8717 25.2745 20.1819 25.1891C22.4012 24.5785 24.4407 23.4875 26.1685 21.9986C24.4407 20.5097 22.3997 19.4187 20.1819 18.8081C19.8717 18.7227 19.5615 18.6851 19.26 18.6894C19.2296 18.6894 19.1977 18.6909 19.1673 18.6923C19.1455 18.6938 19.1252 18.6952 19.1035 18.6967C19.0629 18.6996 19.0223 18.7024 18.9817 18.7053C18.9745 18.7068 18.9658 18.7068 18.9585 18.7082C18.8237 18.7227 18.6904 18.7459 18.5599 18.7762C18.5309 18.7835 18.5034 18.7893 18.4744 18.7965C18.4541 18.8023 18.4338 18.8081 18.4135 18.8139C18.3729 18.8254 18.3338 18.837 18.2932 18.85C18.2816 18.8544 18.2685 18.8587 18.2569 18.8616C18.2077 18.879 18.1584 18.8963 18.1091 18.9151C18.1062 18.9166 18.1033 18.918 18.0989 18.9195C18.0047 18.9571 17.9119 18.9991 17.8221 19.0454C17.7974 19.0598 17.7728 19.0714 17.7481 19.0859Z" fill="#0038B7"/>
</svg>
